# xmcd CD database file
#
# Track frame offsets:
#	150
#	12242
#	25242
#	36455
#	47585
#	57532
#	66717
#	79942
#	90160
#	98505
#	112237
#	125390
#	142650
#	153907
#	165647
#	175520
#	192127
#	202282
#	212705
#	224209
#	237795
#	248192
#	259755
#	269857
#	282522
#
# Disc length: 3923 seconds
#
# Revision: 0
# Processed by: cddbd v1.5.2PL0 Copyright (c) Steve Scherf et al.
# Submitted via: CDex 1.50
#
DISCID=790f5119
DTITLE=Various Artist - mega country - cd3
DYEAR=1900
DGENRE=Country
TTITLE0=waylon jennings - don't think twice
TTITLE1=lynn anderson - rose garden
TTITLE2=george jones - i'll share my world with you
TTITLE3=jerry lee lewis - i forgot to remember to forget
TTITLE4=johnny cash - ballad of a teenage queen
TTITLE5=frankie laine - rowhide
TTITLE6=pattie page - tenesee walz
TTITLE7=patsy cline - these cigarettes in an ashtray
TTITLE8=roger miller - dang me
TTITLE9=freddy fender - wasted days and wasted nights
TTITLE10=ray price - city lights
TTITLE11=kenny rogers - something's burning
TTITLE12=johnny paycheck - tender  years
TTITLE13=charlie walker - pick me up on our way down
TTITLE14=mickey gilley - fraulein
TTITLE15=townes van zandt - pancho and lefty
TTITLE16=leroy van dyke - walk on by
TTITLE17=jan howard - evil on your mind
TTITLE18=carl smith - loose talk
TTITLE19=david houston - almost persuated
TTITLE20=faron young - hello walls
TTITLE21=webb pierce - slowly
TTITLE22=jimmy c.newman - a fallen star
TTITLE23=kingston trio - greenback dollar
TTITLE24=al hirt and ace cannon - games people play
EXTD=
EXTT0=
EXTT1=
EXTT2=
EXTT3=
EXTT4=
EXTT5=
EXTT6=
EXTT7=
EXTT8=
EXTT9=
EXTT10=
EXTT11=
EXTT12=
EXTT13=
EXTT14=
EXTT15=
EXTT16=
EXTT17=
EXTT18=
EXTT19=
EXTT20=
EXTT21=
EXTT22=
EXTT23=
EXTT24=
PLAYORDER=
